<svg height="472pt" viewBox="-4 0 472 472.128" width="472pt" xmlns="http://www.w3.org/2000/svg" xmlns:xlink="http://www.w3.org/1999/xlink"><linearGradient id="linear0" gradientUnits="userSpaceOnUse" x1=".068752" x2="464.564752" y1="236.064" y2="236.064"><stop offset="0" stop-color="#41dfd0"/><stop offset="1" stop-color="#ee83ef"/></linearGradient><path d="m5.507812 358.878906c11.242188 21.464844 38.160157 32.449219 76.367188 32.449219 29.171875-.671875 58.125-5.246094 86.082031-13.601563 6.132813 2.914063 12.453125 5.417969 18.917969 7.496094 14.757812 4.640625 30.132812 7.007813 45.601562 7.015625 6.84375-.015625 13.679688-.5 20.457032-1.453125 45.550781 29.542969 87.3125 45.4375 118.574218 45.4375 5.058594-.03125 10.097657-.566406 15.050782-1.597656 11.203125 12.703125 29.214844 16.9375 44.90625 10.558594s25.640625-21.980469 24.804687-38.898438c-.839843-16.917968-12.277343-31.460937-28.519531-36.261718-2.640625-29.328126-17.722656-66.609376-43.203125-106.527344 64.800781-54.398438 92.746094-107.199219 74.570313-142.015625-18.402344-35.199219-79.0625-42.160157-162.449219-18.769531-12.988281-6.066407-26.765625-10.277344-40.925781-12.511719-.753907-.238281-1.539063-.363281-2.328126-.367188-13.796874-1.953125-27.796874-1.992187-41.601562-.121093-53.375-34.71875-101.152344-50.398438-133.480469-44.125-4.882812-14.082032-18.863281-22.90625-33.675781-21.265626-14.8125 1.644532-26.515625 13.316407-28.195312 28.125-1.683594 14.808594 7.109374 28.808594 21.175781 33.730469-6.160157 31.710938 8.886719 78.398438 42.34375 130.753907-64.75 54.398437-92.632813 107.246093-74.472657 141.949218zm163.914063 1.707032c-5.636719-2.957032-11.0625-6.296876-16.234375-10 10.632812-3.136719 21.648438-6.84375 32.929688-11.050782l4.222656 3.792969c.25.242187.515625.464844.800781.664063 2.671875 2.328124 5.359375 4.488281 8 6.734374-10.0625 3.699219-20.085937 7.050782-29.71875 9.859376zm-71.816406-49.984376c1.542969 2.949219 3.3125 5.742188 5.03125 8.566407-8.363281 2.632812-17.175781 3.515625-25.894531 2.601562 3.953124-7.902343 9.671874-14.789062 16.71875-20.121093 1.335937 3 2.609374 6.015624 4.144531 8.953124zm-1.105469-64.394531c.847656-.535156 1.695312-1.070312 2.527344-1.597656 8.425781 11.429687 17.601562 22.949219 27.554687 34.398437-6.417969 2.511719-12.699219 5.351563-18.824219 8.511719l-2.402343 1.257813c-5.238281-13.617188-8.230469-27.992188-8.855469-42.570313zm-34.335938 83.023438c3.152344 5.9375 9.601563 8.890625 20.113282 8.890625 10.160156-.410156 20.230468-2.042969 30-4.863282 2.480468 3.199219 5.101562 6.253907 7.816406 9.238282-45.503906 9.527344-67.296875 3.238281-72.058594-5.832032-4.757812-9.070312 2.457032-30.648437 36.242188-62.511718.894531 3.878906 1.894531 7.734375 3.113281 11.558594-22.664063 19.585937-30.601563 33.152343-25.226563 43.519531zm56.503907-14.398438c-2.398438-3.671875-4.671875-7.488281-6.75-11.457031l3.253906-1.710938c7.339844-3.800781 14.925781-7.113281 22.703125-9.902343 3.832031 4.222656 7.726562 8.394531 11.691406 12.511719-11.105468 4.253906-21.402344 7.785156-30.890625 10.589843zm43.144531 1.808594c3.632812 3.574219 7.3125 7.136719 11.082031 10.6875-12.019531 4.265625-23.59375 7.867187-34.730469 10.800781-3.199218-3.0625-6.246093-6.292968-9.144531-9.6875 10.121094-3.167968 21.144531-7.160156 32.792969-11.769531zm103.855469-12.664063c33.625-17.398437 65.671875-37.691406 95.777343-60.648437 2.464844-1.921875 4.664063-3.671875 6.757813-5.359375.105469 6.417969-.253906 12.832031-1.070313 19.199219-29.3125 23.3125-60.8125 43.738281-94.054687 60.992187-18.460937 9.703125-37.421875 18.421875-56.800781 26.128906-4.457032-3.671874-8.914063-7.410156-13.375-11.28125 20.421875-8.199218 41.429687-17.855468 62.765625-29zm-76 17.0625c-3.96875-3.652343-7.859375-7.324218-11.679688-11.015624 23.054688-9.679688 47.945313-21.382813 72.914063-34.398438 31.785156-16.445312 62.554687-34.785156 92.140625-54.921875 7.558593-5.261719 14.464843-10.3125 20.722656-15.152344 1.144531 4.316407 2.070313 8.664063 2.773437 13.050781-4.125 3.535157-8.863281 7.382813-14.886718 12.09375-29.34375 22.386719-60.582032 42.175782-93.359375 59.144532-22.285157 11.6875-45.210938 22.113281-68.664063 31.230468zm177.28125-151.398437c-1.289063-2.457031-2.777344-4.730469-4.175781-7.082031-.273438-.453125-.535157-.917969-.800782-1.367188 8.316406-2.679687 17.121094-3.5 25.792969-2.398437-4.023437 7.753906-9.707031 14.527343-16.640625 19.839843-1.351562-3.015624-2.632812-6.039062-4.175781-8.992187zm35.480469-18.464844c-5.375-10.398437-21.03125-11.609375-50.105469-4.070312-2.464844-3.203125-5.0625-6.226563-7.75-9.167969 45.511719-9.601562 67.253906-3.289062 72 5.816406 4.742187 9.101563-2.472657 30.558594-36.21875 62.398438-.902344-3.90625-1.910157-7.777344-3.117188-11.617188 22.605469-19.488281 30.535157-33.023437 25.191407-43.359375zm-49.785157 25.65625.128907.230469c2.109374 4 4 8.128906 5.6875 12.28125-7.164063 5.707031-15.359376 11.777344-24.585938 18.207031-29.023438 19.761719-59.210938 37.757813-90.398438 53.890625-26.777343 14.007813-53.488281 26.46875-77.792968 36.40625-3.648438-3.734375-7.257813-7.507812-10.832032-11.320312 3.648438-.933594 7.320313-1.832032 11.03125-2.550782 36.910157-7.109374 71.074219-24.441406 98.609376-50.023437l9.601562-8.882813c10.636719-9.882812 22.40625-18.476562 35.0625-25.597656zm-130.863281 198.710938c-9.890625-.75-19.667969-2.574219-29.160156-5.4375 6.863281-2.3125 13.863281-4.898438 20.910156-7.59375 4.800781 3.746093 9.449219 7.304687 13.9375 10.625-1.839844.792969-3.6875 1.589843-5.6875 2.40625zm22.128906-10.246094c-4.269531-3.035156-8.621094-6.234375-13.058594-9.601563 16.546876-6.886718 33.203126-14.679687 49.695313-23.34375 28.367187-14.8125 55.527344-31.816406 81.242187-50.863281-3.265624 10.128907-7.703124 19.84375-13.222656 28.945313-22.285156 7.554687-43.597656 17.722656-63.488281 30.292968l-18.59375 11.785157c-7.085937 4.503906-14.6875 8.753906-22.574219 12.785156zm31.125.703125 18.554688-11.742188c11.523437-7.253906 23.554687-13.667968 36-19.203124-17.574219 18.15625-39.9375 30.945312-64.496094 36.882812 3.359375-1.9375 6.742188-3.890625 9.941406-5.9375zm165.242188 42.128906c0 13.253906-10.746094 24-24 24s-24-10.746094-24-24 10.746094-24 24-24 24 10.746094 24 24zm-28.738282-39.519531c-11.808593 1.191406-22.445312 7.667969-28.917968 17.621094-6.476563 9.949219-8.09375 22.296875-4.398438 33.578125-25.089844 2.597656-61.976562-9.601563-102.890625-33.929688 9.476563-2.808594 18.664063-6.527344 27.425781-11.101562 23.695313-12.382813 43.675782-30.839844 57.894532-53.480469.273437-.367187.511718-.757813.710937-1.167969 6.761719-10.832031 12.136719-22.464844 16-34.632812.25-.800782.394531-1.601563.632813-2.398438 19.191406 32.230469 30.769531 61.832032 33.542968 85.511719zm33.402344-239.738281c13.167969 25.21875-10.519531 68.855468-60.664062 113.65625.097656-5.875-.148438-11.753906-.746094-17.597656 41.195312-36.539063 57.992188-67.914063 47.203125-88.546876-10.792969-20.628906-46.121094-24.796874-99.808594-11.742187-2.9375-2.496094-5.984375-4.800781-9.089843-7.082031-.128907-.105469-.261719-.203125-.398438-.292969-1.503906-1.089844-2.9375-2.28125-4.464844-3.304687 65.464844-15.65625 114.800782-10.265626 127.96875 14.910156zm-100.664062 34.257812-42.824219 22.253906c-13.84375 7.789063-26.71875 17.1875-38.351563 28l-9.601562 8.890626c-25.34375 23.539062-56.789062 39.492187-90.75 46.046874-6.75 1.335938-13.425781 3.023438-20 5.054688-11.203125-12.671875-21.480469-25.40625-30.777344-38.015625 5.871094-4.550781 11.480469-9.433594 16.800782-14.625 24.738281-24.171875 55.769531-40.914063 89.558593-48.320313l12.753907-2.789062c15.636718-3.425781 30.808593-8.707031 45.191406-15.730469l39.710937-20.917969c10.921875 8.539063 20.464844 18.707032 28.289063 30.152344zm-89.914063-57.074218c16.421875 2.710937 32.207031 8.386718 46.59375 16.753906l-31.914062 16.800781c-13.140625 6.382813-26.992188 11.195313-41.261719 14.335937l-12.746094 2.789063c-36.714844 8.042969-70.433594 26.238281-97.308594 52.511719-4.742187 4.605468-9.726562 8.945312-14.9375 13.011718-1.433593-2.066406-2.894531-4.136718-4.265624-6.203124.984374-5.589844 2.300781-11.117188 3.953124-16.550782 1.730469-5.398437 3.796876-10.6875 6.183594-15.832031l15.015625-6.398437c16.617188-7.144532 32.640625-15.585938 47.929688-25.25l29.839843-18.953126c9.359376-5.933593 19.023438-11.375 28.953126-16.300781 8.4375-4.21875 16.277343-7.679687 23.964843-10.714843zm-35.6875-1.207032c-8.710937 4.503906-17.375 9.359375-25.78125 14.6875l-29.824219 18.945313c-13.074218 8.230469-26.707031 15.535156-40.800781 21.855469 22.703125-31.453126 57.804688-51.65625 96.40625-55.488282zm-186.398437-48.71875c0-8.835937 7.164062-16 16-16 8.835937 0 16 7.164063 16 16 0 8.835938-7.164063 16-16 16-8.835938 0-16-7.164062-16-16zm21.351562 31.457032c13.332032-2.273438 23.785156-12.699219 26.097656-26.027344 25.046876-5.847656 64.6875 6.136718 109.4375 32.847656-41.007812 12.035156-74.984374 40.898438-93.496093 79.417969-.226563.382812-.417969.785156-.574219 1.199219-3.082031 6.378906-5.714844 12.960937-7.882812 19.703124-.253907.800782-.390626 1.640626-.636719 2.457032-26.769531-44.878906-38.785157-84.582032-32.945313-109.597656zm26.648438 150.246093c-.082032 5.878907.183594 11.753907.800781 17.601563-41.21875 36.558594-58.023437 68-47.203125 88.679687 6.691406 12.734375 22.761719 19.199219 46.738281 19.199219 17.921875-.445312 35.734375-2.953125 53.078125-7.480469 4.457032 3.808594 9.136719 7.347657 14.007813 10.609375-65.46875 15.597656-114.816407 10.214844-128-14.945312-13.183594-25.160156 10.488281-68.777344 60.578125-113.664063zm118.863281-43.304687c-12.074219-3.941406-25.285156.78125-32.121094 11.484375-6.839843 10.703125-5.570312 24.675781 3.082031 33.972656.199219.230469.414063.449219.640626.65625 3.210937 3.386719 7.226562 5.910156 11.671874 7.335937 2.714844.847657 5.542969 1.28125 8.390626 1.289063 13.84375.007813 25.613281-10.101563 27.699218-23.785156 2.085938-13.6875-6.144531-26.839844-19.363281-30.953125zm3.089844 30.304687c-1.84375 5.875-7.832031 9.398438-13.863281 8.164063-6.027344-1.238282-10.144532-6.835938-9.527344-12.960938.617187-6.125 5.769531-10.789062 11.925781-10.796875 1.21875.003907 2.433594.191407 3.597656.554688 6.328125 1.980469 9.847657 8.714843 7.867188 15.039062zm40.285156-208.574219-16-.257812.257813-16 16 .257812zm32.257813 16-.257813 16-16-.257812.257813-16zm-64 0-.257813 16-16-.257812.257813-16zm-34.496094 399.871094h16v16h-16zm40 40v-18.449218h16v18.449218zm48-24v-18.449218h16v18.449218zm0 0" fill="url(#linear0)"/></svg>